<?xml version="1.0" standalone="no"?>
<!DOCTYPE svg PUBLIC "-//W3C//DTD SVG 20010904//EN"
 "http://www.w3.org/TR/2001/REC-SVG-20010904/DTD/svg10.dtd">
<svg version="1.0" xmlns="http://www.w3.org/2000/svg"
 width="174.000000pt" height="174.000000pt" viewBox="0 0 174.000000 174.000000"
 preserveAspectRatio="xMidYMid meet">
<metadata>
Created by potrace 1.14, written by Peter Selinger 2001-2017
</metadata>
<g transform="translate(0.000000,174.000000) scale(0.100000,-0.100000)"
fill="#000000" stroke="none">
<path d="M747 1710 c-326 -55 -577 -277 -673 -595 -24 -80 -27 -106 -27 -230
0 -124 3 -151 27 -230 66 -220 204 -393 397 -499 140 -77 246 -102 424 -100
244 2 467 110 628 303 23 29 87 120 88 126 0 2 10 26 21 52 12 27 23 53 24 58
1 6 9 29 18 52 40 112 45 301 10 440 -20 82 -69 192 -119 267 -68 103 -207
227 -301 268 -16 7 -31 15 -34 18 -6 7 -121 45 -180 61 -56 14 -238 20 -303 9z"/>
</g>
</svg>
